<svg xmlns="http://www.w3.org/2000/svg" xmlns:xlink="http://www.w3.org/1999/xlink" version="1.1" class="marks" width="530" height="447" viewBox="0 0 530 447"><rect width="530" height="447" fill="white"/><g fill="none" stroke-miterlimit="10" transform="translate(265,44)"><g class="mark-group role-frame root" role="graphics-object" aria-roledescription="group mark container"><g transform="translate(0,0)"><path class="background" aria-hidden="true" d="M0.5,0.5h0v200h0Z" stroke="#ddd"/><g><g class="mark-group role-axis" aria-hidden="true"><g transform="translate(0.5,0.5)"><path class="background" aria-hidden="true" d="M0,0h0v0h0Z" pointer-events="none"/><g><g class="mark-rule role-axis-grid" pointer-events="none"><line transform="translate(0,200)" x2="120" y2="0" stroke="#ddd" stroke-width="1" opacity="1"/><line transform="translate(0,138)" x2="120" y2="0" stroke="#ddd" stroke-width="1" opacity="1"/><line transform="translate(0,75)" x2="120" y2="0" stroke="#ddd" stroke-width="1" opacity="1"/><line transform="translate(0,13)" x2="120" y2="0" stroke="#ddd" stroke-width="1" opacity="1"/></g></g><path class="foreground" aria-hidden="true" d="" pointer-events="none" display="none"/></g></g><g class="mark-group role-axis" role="graphics-symbol" aria-roledescription="axis" aria-label="X-axis titled 'type' for a discrete scale with 6 values: Appariement, ChoixMultiple, ReponseCourte, ReponseNumerique, ReponseNumeriqueMultiple, VraiFaux"><g transform="translate(0.5,200.5)"><path class="background" aria-hidden="true" d="M0,0h0v0h0Z" pointer-events="none"/><g><g class="mark-rule role-axis-tick" pointer-events="none"><line transform="translate(10,0)" x2="0" y2="5" stroke="#888" stroke-width="1" opacity="1"/><line transform="translate(30,0)" x2="0" y2="5" stroke="#888" stroke-width="1" opacity="1"/><line transform="translate(50,0)" x2="0" y2="5" stroke="#888" stroke-width="1" opacity="1"/><line transform="translate(70,0)" x2="0" y2="5" stroke="#888" stroke-width="1" opacity="1"/><line transform="translate(90,0)" x2="0" y2="5" stroke="#888" stroke-width="1" opacity="1"/><line transform="translate(110,0)" x2="0" y2="5" stroke="#888" stroke-width="1" opacity="1"/></g><g class="mark-text role-axis-label" pointer-events="none"><text text-anchor="end" transform="translate(9.5,7) rotate(270) translate(0,3)" font-family="sans-serif" font-size="10px" fill="#000" opacity="1">Appariement</text><text text-anchor="end" transform="translate(29.5,7) rotate(270) translate(0,3)" font-family="sans-serif" font-size="10px" fill="#000" opacity="1">ChoixMultiple</text><text text-anchor="end" transform="translate(49.5,7) rotate(270) translate(0,3)" font-family="sans-serif" font-size="10px" fill="#000" opacity="1">ReponseCourte</text><text text-anchor="end" transform="translate(69.5,7) rotate(270) translate(0,3)" font-family="sans-serif" font-size="10px" fill="#000" opacity="1">ReponseNumerique</text><text text-anchor="end" transform="translate(89.5,7) rotate(270) translate(0,3)" font-family="sans-serif" font-size="10px" fill="#000" opacity="1">ReponseNumeriqueMulti…</text><text text-anchor="end" transform="translate(109.5,7) rotate(270) translate(0,3)" font-family="sans-serif" font-size="10px" fill="#000" opacity="1">VraiFaux</text></g><g class="mark-rule role-axis-domain" pointer-events="none"><line transform="translate(0,0)" x2="120" y2="0" stroke="#888" stroke-width="1" opacity="1"/></g><g class="mark-text role-axis-title" pointer-events="none"><text text-anchor="middle" transform="translate(0,196)" font-family="sans-serif" font-size="11px" font-weight="bold" fill="#000" opacity="1">type</text></g></g><path class="foreground" aria-hidden="true" d="" pointer-events="none" display="none"/></g></g><g class="mark-group role-axis" role="graphics-symbol" aria-roledescription="axis" aria-label="Y-axis titled 'count' for a linear scale with values from 0 to 16"><g transform="translate(0.5,0.5)"><path class="background" aria-hidden="true" d="M0,0h0v0h0Z" pointer-events="none"/><g><g class="mark-rule role-axis-tick" pointer-events="none"><line transform="translate(0,200)" x2="-5" y2="0" stroke="#888" stroke-width="1" opacity="1"/><line transform="translate(0,138)" x2="-5" y2="0" stroke="#888" stroke-width="1" opacity="1"/><line transform="translate(0,75)" x2="-5" y2="0" stroke="#888" stroke-width="1" opacity="1"/><line transform="translate(0,13)" x2="-5" y2="0" stroke="#888" stroke-width="1" opacity="1"/></g><g class="mark-text role-axis-label" pointer-events="none"><text text-anchor="end" transform="translate(-7,203)" font-family="sans-serif" font-size="10px" fill="#000" opacity="1">0</text><text text-anchor="end" transform="translate(-7,140.5)" font-family="sans-serif" font-size="10px" fill="#000" opacity="1">5</text><text text-anchor="end" transform="translate(-7,78)" font-family="sans-serif" font-size="10px" fill="#000" opacity="1">10</text><text text-anchor="end" transform="translate(-7,15.5)" font-family="sans-serif" font-size="10px" fill="#000" opacity="1">15</text></g><g class="mark-rule role-axis-domain" pointer-events="none"><line transform="translate(0,200)" x2="0" y2="-200" stroke="#888" stroke-width="1" opacity="1"/></g><g class="mark-text role-axis-title" pointer-events="none"><text text-anchor="middle" transform="translate(-27,0) rotate(-90) translate(0,-2)" font-family="sans-serif" font-size="11px" font-weight="bold" fill="#000" opacity="1">count</text></g></g><path class="foreground" aria-hidden="true" d="" pointer-events="none" display="none"/></g></g><g class="mark-rect role-mark marks" role="graphics-object" aria-roledescription="rect mark container"><path aria-label="type: ChoixMultiple; count: 1" role="graphics-symbol" aria-roledescription="bar" d="M20,187.5h20v12.5h-20Z" fill="#8C466F "/><path aria-label="type: ChoixMultiple; count: 1" role="graphics-symbol" aria-roledescription="bar" d="M20,175h20v12.5h-20Z" fill="#8C466F "/><path aria-label="type: VraiFaux; count: 1" role="graphics-symbol" aria-roledescription="bar" d="M100,187.5h20v12.5h-20Z" fill="#8C466F "/><path aria-label="type: ReponseCourte; count: 1" role="graphics-symbol" aria-roledescription="bar" d="M40,187.5h20v12.5h-20Z" fill="#8C466F "/><path aria-label="type: ReponseNumerique; count: 1" role="graphics-symbol" aria-roledescription="bar" d="M60,187.5h20v12.5h-20Z" fill="#8C466F "/><path aria-label="type: ChoixMultiple; count: 1" role="graphics-symbol" aria-roledescription="bar" d="M20,162.5h20v12.5h-20Z" fill="#8C466F "/><path aria-label="type: ChoixMultiple; count: 1" role="graphics-symbol" aria-roledescription="bar" d="M20,150h20v12.5h-20Z" fill="#8C466F "/><path aria-label="type: ChoixMultiple; count: 1" role="graphics-symbol" aria-roledescription="bar" d="M20,137.5h20v12.5h-20Z" fill="#8C466F "/><path aria-label="type: ChoixMultiple; count: 1" role="graphics-symbol" aria-roledescription="bar" d="M20,125h20v12.5h-20Z" fill="#8C466F "/><path aria-label="type: ReponseCourte; count: 1" role="graphics-symbol" aria-roledescription="bar" d="M40,175h20v12.5h-20Z" fill="#8C466F "/><path aria-label="type: ReponseCourte; count: 1" role="graphics-symbol" aria-roledescription="bar" d="M40,162.5h20v12.5h-20Z" fill="#8C466F "/><path aria-label="type: VraiFaux; count: 1" role="graphics-symbol" aria-roledescription="bar" d="M100,175h20v12.5h-20Z" fill="#8C466F "/><path aria-label="type: VraiFaux; count: 1" role="graphics-symbol" aria-roledescription="bar" d="M100,162.5h20v12.5h-20Z" fill="#8C466F "/><path aria-label="type: Appariement; count: 1" role="graphics-symbol" aria-roledescription="bar" d="M0,187.5h20v12.5h-20Z" fill="#8C466F "/><path aria-label="type: Appariement; count: 1" role="graphics-symbol" aria-roledescription="bar" d="M0,175h20v12.5h-20Z" fill="#8C466F "/><path aria-label="type: ReponseNumerique; count: 1" role="graphics-symbol" aria-roledescription="bar" d="M60,175h20v12.5h-20Z" fill="#8C466F "/><path aria-label="type: ReponseNumerique; count: 1" role="graphics-symbol" aria-roledescription="bar" d="M60,162.5h20v12.5h-20Z" fill="#8C466F "/><path aria-label="type: ReponseNumerique; count: 1" role="graphics-symbol" aria-roledescription="bar" d="M60,150h20v12.5h-20Z" fill="#8C466F "/><path aria-label="type: ReponseNumeriqueMultiple; count: 1" role="graphics-symbol" aria-roledescription="bar" d="M80,187.5h20v12.5h-20Z" fill="#8C466F "/><path aria-label="type: ReponseNumerique; count: 1" role="graphics-symbol" aria-roledescription="bar" d="M60,137.5h20v12.5h-20Z" fill="#8C466F "/><path aria-label="type: ReponseCourte; count: 1" role="graphics-symbol" aria-roledescription="bar" d="M40,150h20v12.5h-20Z" fill="#8C466F "/><path aria-label="type: ChoixMultiple; count: 1" role="graphics-symbol" aria-roledescription="bar" d="M20,112.5h20v12.5h-20Z" fill="#8C466F "/><path aria-label="type: ChoixMultiple; count: 1" role="graphics-symbol" aria-roledescription="bar" d="M20,100h20v12.5h-20Z" fill="#8C466F "/><path aria-label="type: ReponseCourte; count: 1" role="graphics-symbol" aria-roledescription="bar" d="M40,137.5h20v12.5h-20Z" fill="#8C466F "/><path aria-label="type: VraiFaux; count: 1" role="graphics-symbol" aria-roledescription="bar" d="M100,150h20v12.5h-20Z" fill="#8C466F "/><path aria-label="type: ChoixMultiple; count: 1" role="graphics-symbol" aria-roledescription="bar" d="M20,87.5h20v12.5h-20Z" fill="#8C466F "/><path aria-label="type: ChoixMultiple; count: 1" role="graphics-symbol" aria-roledescription="bar" d="M20,75h20v12.5h-20Z" fill="#8C466F "/><path aria-label="type: ReponseCourte; count: 1" role="graphics-symbol" aria-roledescription="bar" d="M40,125h20v12.5h-20Z" fill="#8C466F "/><path aria-label="type: ChoixMultiple; count: 1" role="graphics-symbol" aria-roledescription="bar" d="M20,62.5h20v12.5h-20Z" fill="#8C466F "/><path aria-label="type: ChoixMultiple; count: 1" role="graphics-symbol" aria-roledescription="bar" d="M20,50h20v12.5h-20Z" fill="#8C466F "/><path aria-label="type: ChoixMultiple; count: 1" role="graphics-symbol" aria-roledescription="bar" d="M20,37.5h20v12.5h-20Z" fill="#8C466F "/><path aria-label="type: ChoixMultiple; count: 1" role="graphics-symbol" aria-roledescription="bar" d="M20,25h20v12.5h-20Z" fill="#8C466F "/><path aria-label="type: VraiFaux; count: 1" role="graphics-symbol" aria-roledescription="bar" d="M100,137.5h20v12.5h-20Z" fill="#8C466F "/><path aria-label="type: ReponseCourte; count: 1" role="graphics-symbol" aria-roledescription="bar" d="M40,112.5h20v12.5h-20Z" fill="#8C466F "/><path aria-label="type: ReponseNumerique; count: 1" role="graphics-symbol" aria-roledescription="bar" d="M60,125h20v12.5h-20Z" fill="#8C466F "/><path aria-label="type: Appariement; count: 1" role="graphics-symbol" aria-roledescription="bar" d="M0,162.5h20v12.5h-20Z" fill="#8C466F "/><path aria-label="type: ChoixMultiple; count: 1" role="graphics-symbol" aria-roledescription="bar" d="M20,12.5h20v12.5h-20Z" fill="#8C466F "/><path aria-label="type: ChoixMultiple; count: 1" role="graphics-symbol" aria-roledescription="bar" d="M20,0h20v12.5h-20Z" fill="#8C466F "/><path aria-label="type: ReponseCourte; count: 1" role="graphics-symbol" aria-roledescription="bar" d="M40,100h20v12.5h-20Z" fill="#8C466F "/><path aria-label="type: ReponseNumeriqueMultiple; count: 1" role="graphics-symbol" aria-roledescription="bar" d="M80,175h20v12.5h-20Z" fill="#8C466F "/></g><g class="mark-group role-title"><g transform="translate(0,-39)"><path class="background" aria-hidden="true" d="M0,0h0v0h0Z" pointer-events="none"/><g><g class="mark-text role-title-text" role="graphics-symbol" aria-roledescription="title" aria-label="Title text 'Répartition des types de questions dans votre test'" pointer-events="none"><text text-anchor="middle" transform="translate(0,10)" font-family="sans-serif" font-size="13px" font-weight="bold" fill="#000" opacity="1">Répartition des types de questions dans votre test</text></g></g><path class="foreground" aria-hidden="true" d="" pointer-events="none" display="none"/></g></g></g><path class="foreground" aria-hidden="true" d="" display="none"/></g></g></g></svg>