<svg xmlns="http://www.w3.org/2000/svg" xmlns:xlink="http://www.w3.org/1999/xlink" version="1.1" class="marks" width="163" height="430" viewBox="0 0 163 430"><rect width="163" height="430" fill="white"/><g fill="none" stroke-miterlimit="10" transform="translate(43,27)"><g class="mark-group role-frame root" role="graphics-object" aria-roledescription="group mark container"><g transform="translate(0,0)"><path class="background" aria-hidden="true" d="M0.5,0.5h0v200h0Z" stroke="#ddd"/><g><g class="mark-group role-axis" aria-hidden="true"><g transform="translate(0.5,0.5)"><path class="background" aria-hidden="true" d="M0,0h0v0h0Z" pointer-events="none"/><g><g class="mark-rule role-axis-grid" pointer-events="none"><line transform="translate(0,200)" x2="120" y2="0" stroke="#ddd" stroke-width="1" opacity="1"/><line transform="translate(0,138)" x2="120" y2="0" stroke="#ddd" stroke-width="1" opacity="1"/><line transform="translate(0,75)" x2="120" y2="0" stroke="#ddd" stroke-width="1" opacity="1"/><line transform="translate(0,13)" x2="120" y2="0" stroke="#ddd" stroke-width="1" opacity="1"/></g></g><path class="foreground" aria-hidden="true" d="" pointer-events="none" display="none"/></g></g><g class="mark-group role-axis" role="graphics-symbol" aria-roledescription="axis" aria-label="X-axis titled 'type' for a discrete scale with 6 values: Appariement, ChoixMultiple, ReponseCourte, ReponseNumerique, ReponseNumeriqueMultiple, VraiFaux"><g transform="translate(0.5,200.5)"><path class="background" aria-hidden="true" d="M0,0h0v0h0Z" pointer-events="none"/><g><g class="mark-rule role-axis-tick" pointer-events="none"><line transform="translate(10,0)" x2="0" y2="5" stroke="#888" stroke-width="1" opacity="1"/><line transform="translate(30,0)" x2="0" y2="5" stroke="#888" stroke-width="1" opacity="1"/><line transform="translate(50,0)" x2="0" y2="5" stroke="#888" stroke-width="1" opacity="1"/><line transform="translate(70,0)" x2="0" y2="5" stroke="#888" stroke-width="1" opacity="1"/><line transform="translate(90,0)" x2="0" y2="5" stroke="#888" stroke-width="1" opacity="1"/><line transform="translate(110,0)" x2="0" y2="5" stroke="#888" stroke-width="1" opacity="1"/></g><g class="mark-text role-axis-label" pointer-events="none"><text text-anchor="end" transform="translate(9.5,7) rotate(270) translate(0,3)" font-family="sans-serif" font-size="10px" fill="#000" opacity="1">Appariement</text><text text-anchor="end" transform="translate(29.5,7) rotate(270) translate(0,3)" font-family="sans-serif" font-size="10px" fill="#000" opacity="1">ChoixMultiple</text><text text-anchor="end" transform="translate(49.5,7) rotate(270) translate(0,3)" font-family="sans-serif" font-size="10px" fill="#000" opacity="1">ReponseCourte</text><text text-anchor="end" transform="translate(69.5,7) rotate(270) translate(0,3)" font-family="sans-serif" font-size="10px" fill="#000" opacity="1">ReponseNumerique</text><text text-anchor="end" transform="translate(89.5,7) rotate(270) translate(0,3)" font-family="sans-serif" font-size="10px" fill="#000" opacity="1">ReponseNumeriqueMulti…</text><text text-anchor="end" transform="translate(109.5,7) rotate(270) translate(0,3)" font-family="sans-serif" font-size="10px" fill="#000" opacity="1">VraiFaux</text></g><g class="mark-rule role-axis-domain" pointer-events="none"><line transform="translate(0,0)" x2="120" y2="0" stroke="#888" stroke-width="1" opacity="1"/></g><g class="mark-text role-axis-title" pointer-events="none"><text text-anchor="middle" transform="translate(0,196)" font-family="sans-serif" font-size="11px" font-weight="bold" fill="#000" opacity="1">type</text></g></g><path class="foreground" aria-hidden="true" d="" pointer-events="none" display="none"/></g></g><g class="mark-group role-axis" role="graphics-symbol" aria-roledescription="axis" aria-label="Y-axis titled 'count' for a linear scale with values from 0 to 16"><g transform="translate(0.5,0.5)"><path class="background" aria-hidden="true" d="M0,0h0v0h0Z" pointer-events="none"/><g><g class="mark-rule role-axis-tick" pointer-events="none"><line transform="translate(0,200)" x2="-5" y2="0" stroke="#888" stroke-width="1" opacity="1"/><line transform="translate(0,138)" x2="-5" y2="0" stroke="#888" stroke-width="1" opacity="1"/><line transform="translate(0,75)" x2="-5" y2="0" stroke="#888" stroke-width="1" opacity="1"/><line transform="translate(0,13)" x2="-5" y2="0" stroke="#888" stroke-width="1" opacity="1"/></g><g class="mark-text role-axis-label" pointer-events="none"><text text-anchor="end" transform="translate(-7,203)" font-family="sans-serif" font-size="10px" fill="#000" opacity="1">0</text><text text-anchor="end" transform="translate(-7,140.5)" font-family="sans-serif" font-size="10px" fill="#000" opacity="1">5</text><text text-anchor="end" transform="translate(-7,78)" font-family="sans-serif" font-size="10px" fill="#000" opacity="1">10</text><text text-anchor="end" transform="translate(-7,15.5)" font-family="sans-serif" font-size="10px" fill="#000" opacity="1">15</text></g><g class="mark-rule role-axis-domain" pointer-events="none"><line transform="translate(0,200)" x2="0" y2="-200" stroke="#888" stroke-width="1" opacity="1"/></g><g class="mark-text role-axis-title" pointer-events="none"><text text-anchor="middle" transform="translate(-27,0) rotate(-90) translate(0,-2)" font-family="sans-serif" font-size="11px" font-weight="bold" fill="#000" opacity="1">count</text></g></g><path class="foreground" aria-hidden="true" d="" pointer-events="none" display="none"/></g></g><g class="mark-rect role-mark marks" role="graphics-object" aria-roledescription="rect mark container"><path aria-label="type: ChoixMultiple; count: 1" role="graphics-symbol" aria-roledescription="bar" d="M21,187.5h0.25v12.5h-0.25Z" fill="#4c78a8"/><path aria-label="type: ChoixMultiple; count: 1" role="graphics-symbol" aria-roledescription="bar" d="M21,175h0.25v12.5h-0.25Z" fill="#4c78a8"/><path aria-label="type: VraiFaux; count: 1" role="graphics-symbol" aria-roledescription="bar" d="M101,187.5h0.25v12.5h-0.25Z" fill="#4c78a8"/><path aria-label="type: ReponseCourte; count: 1" role="graphics-symbol" aria-roledescription="bar" d="M41,187.5h0.25v12.5h-0.25Z" fill="#4c78a8"/><path aria-label="type: ReponseNumerique; count: 1" role="graphics-symbol" aria-roledescription="bar" d="M61,187.5h0.25v12.5h-0.25Z" fill="#4c78a8"/><path aria-label="type: ChoixMultiple; count: 1" role="graphics-symbol" aria-roledescription="bar" d="M21,162.5h0.25v12.5h-0.25Z" fill="#4c78a8"/><path aria-label="type: ChoixMultiple; count: 1" role="graphics-symbol" aria-roledescription="bar" d="M21,150h0.25v12.5h-0.25Z" fill="#4c78a8"/><path aria-label="type: ChoixMultiple; count: 1" role="graphics-symbol" aria-roledescription="bar" d="M21,137.5h0.25v12.5h-0.25Z" fill="#4c78a8"/><path aria-label="type: ChoixMultiple; count: 1" role="graphics-symbol" aria-roledescription="bar" d="M21,125h0.25v12.5h-0.25Z" fill="#4c78a8"/><path aria-label="type: ReponseCourte; count: 1" role="graphics-symbol" aria-roledescription="bar" d="M41,175h0.25v12.5h-0.25Z" fill="#4c78a8"/><path aria-label="type: ReponseCourte; count: 1" role="graphics-symbol" aria-roledescription="bar" d="M41,162.5h0.25v12.5h-0.25Z" fill="#4c78a8"/><path aria-label="type: VraiFaux; count: 1" role="graphics-symbol" aria-roledescription="bar" d="M101,175h0.25v12.5h-0.25Z" fill="#4c78a8"/><path aria-label="type: VraiFaux; count: 1" role="graphics-symbol" aria-roledescription="bar" d="M101,162.5h0.25v12.5h-0.25Z" fill="#4c78a8"/><path aria-label="type: Appariement; count: 1" role="graphics-symbol" aria-roledescription="bar" d="M1,187.5h0.25v12.5h-0.25Z" fill="#4c78a8"/><path aria-label="type: Appariement; count: 1" role="graphics-symbol" aria-roledescription="bar" d="M1,175h0.25v12.5h-0.25Z" fill="#4c78a8"/><path aria-label="type: ReponseNumerique; count: 1" role="graphics-symbol" aria-roledescription="bar" d="M61,175h0.25v12.5h-0.25Z" fill="#4c78a8"/><path aria-label="type: ReponseNumerique; count: 1" role="graphics-symbol" aria-roledescription="bar" d="M61,162.5h0.25v12.5h-0.25Z" fill="#4c78a8"/><path aria-label="type: ReponseNumerique; count: 1" role="graphics-symbol" aria-roledescription="bar" d="M61,150h0.25v12.5h-0.25Z" fill="#4c78a8"/><path aria-label="type: ReponseNumeriqueMultiple; count: 1" role="graphics-symbol" aria-roledescription="bar" d="M81,187.5h0.25v12.5h-0.25Z" fill="#4c78a8"/><path aria-label="type: ReponseNumerique; count: 1" role="graphics-symbol" aria-roledescription="bar" d="M61,137.5h0.25v12.5h-0.25Z" fill="#4c78a8"/><path aria-label="type: ReponseCourte; count: 1" role="graphics-symbol" aria-roledescription="bar" d="M41,150h0.25v12.5h-0.25Z" fill="#4c78a8"/><path aria-label="type: ChoixMultiple; count: 1" role="graphics-symbol" aria-roledescription="bar" d="M21,112.5h0.25v12.5h-0.25Z" fill="#4c78a8"/><path aria-label="type: ChoixMultiple; count: 1" role="graphics-symbol" aria-roledescription="bar" d="M21,100h0.25v12.5h-0.25Z" fill="#4c78a8"/><path aria-label="type: ReponseCourte; count: 1" role="graphics-symbol" aria-roledescription="bar" d="M41,137.5h0.25v12.5h-0.25Z" fill="#4c78a8"/><path aria-label="type: VraiFaux; count: 1" role="graphics-symbol" aria-roledescription="bar" d="M101,150h0.25v12.5h-0.25Z" fill="#4c78a8"/><path aria-label="type: ChoixMultiple; count: 1" role="graphics-symbol" aria-roledescription="bar" d="M21,87.5h0.25v12.5h-0.25Z" fill="#4c78a8"/><path aria-label="type: ChoixMultiple; count: 1" role="graphics-symbol" aria-roledescription="bar" d="M21,75h0.25v12.5h-0.25Z" fill="#4c78a8"/><path aria-label="type: ReponseCourte; count: 1" role="graphics-symbol" aria-roledescription="bar" d="M41,125h0.25v12.5h-0.25Z" fill="#4c78a8"/><path aria-label="type: ChoixMultiple; count: 1" role="graphics-symbol" aria-roledescription="bar" d="M21,62.5h0.25v12.5h-0.25Z" fill="#4c78a8"/><path aria-label="type: ChoixMultiple; count: 1" role="graphics-symbol" aria-roledescription="bar" d="M21,50h0.25v12.5h-0.25Z" fill="#4c78a8"/><path aria-label="type: ChoixMultiple; count: 1" role="graphics-symbol" aria-roledescription="bar" d="M21,37.5h0.25v12.5h-0.25Z" fill="#4c78a8"/><path aria-label="type: ChoixMultiple; count: 1" role="graphics-symbol" aria-roledescription="bar" d="M21,25h0.25v12.5h-0.25Z" fill="#4c78a8"/><path aria-label="type: VraiFaux; count: 1" role="graphics-symbol" aria-roledescription="bar" d="M101,137.5h0.25v12.5h-0.25Z" fill="#4c78a8"/><path aria-label="type: ReponseCourte; count: 1" role="graphics-symbol" aria-roledescription="bar" d="M41,112.5h0.25v12.5h-0.25Z" fill="#4c78a8"/><path aria-label="type: ReponseNumerique; count: 1" role="graphics-symbol" aria-roledescription="bar" d="M61,125h0.25v12.5h-0.25Z" fill="#4c78a8"/><path aria-label="type: Appariement; count: 1" role="graphics-symbol" aria-roledescription="bar" d="M1,162.5h0.25v12.5h-0.25Z" fill="#4c78a8"/><path aria-label="type: ChoixMultiple; count: 1" role="graphics-symbol" aria-roledescription="bar" d="M21,12.5h0.25v12.5h-0.25Z" fill="#4c78a8"/><path aria-label="type: ChoixMultiple; count: 1" role="graphics-symbol" aria-roledescription="bar" d="M21,0h0.25v12.5h-0.25Z" fill="#4c78a8"/><path aria-label="type: ReponseCourte; count: 1" role="graphics-symbol" aria-roledescription="bar" d="M41,100h0.25v12.5h-0.25Z" fill="#4c78a8"/><path aria-label="type: ReponseNumeriqueMultiple; count: 1" role="graphics-symbol" aria-roledescription="bar" d="M81,175h0.25v12.5h-0.25Z" fill="#4c78a8"/></g></g><path class="foreground" aria-hidden="true" d="" display="none"/></g></g></g></svg>